# ProBuilder 5.0.6
# https://unity3d.com/unity/features/worldbuilding/probuilder
# 4/16/2023 6:48:13 PM

mtllib ./Room.mtl
o Room

g Room
v -8 4.5 3.004129
v -8 4.5 0.9782548
v -8 4.5 0
v 2 4.5 0
v 2 4.5 0.9782548
v 2 4.5 3.004129
v 2 0 3.004129
v 2 0 0.9782548
v 4 0 3.004129
v 4 0 0.9782548
v 2 3 0.9782548
v 2 3 3.004129
v 4 3 0.9782548
v 4 3 3.004129
v -8 4.5 4.002855
v -8 3.75 3.004129
v -8 3.75 4.002855
v -8 3 3.004129
v -8 3 4.002855
v -8 4.5 3.267067
v -8 3.75 0.9782548
v -8 3 0.9782548
v -8 3.75 0
v -8 3 0
v -8 0 0.9782548
v -8 0.75 0.9782548
v -8 0.75 0
v -8 0 0
v -8 1.5 0.9782548
v -8 1.5 0
v -8 2.25 0.9782548
v -8 2.25 0
v -8 1.5 4.002855
v -8 1.5 3.004129
v -8 0.75 3.004129
v -8 1 4.002855
v -8 0 3.004129
v -8 0 4.002855
v -8 2.25 3.004129
v -8 2.25 4.002855
v 2 3 0
v 2 3.75 0
v 2 3.75 0.9782548
v 2 3 3.267067
v 2 3.75 3.004129
v 2 3.75 3.267067
v 2 4.5 3.267067
v 2 0 3.267067
v 2 0.75 3.004129
v 2 1 3.267067
v 2 1.5 3.004129
v 2 1.5 3.267067
v 6 0 3.004129
v 6 0 0.9782548
v 6 0.75 0.9782548
v 6 0.75 3.004129
v 6 1.5 0.9782548
v 6 1.5 3.004129
v 6 2.25 0.9782548
v 6 2.25 3.004129
v 6 3 0.9782548
v 6 3 3.004129
v 2 2.25 3.004129
v 2 2.25 3.267067
v 2 0 0
v 2 0.75 0
v 2 0.75 0.9782548
v 2 1.5 0
v 2 1.5 0.9782548
v 2 2.25 0
v 2 2.25 0.9782548
v 4 0.75 0.9782548
v 4 1.5 0.9782548
v 4 0.75 3.004129
v 4 1.5 3.004129
v 4 2.25 0.9782548
v 4 2.25 3.004129
v -8 3 10.03
v -8 3.75 10.03
v -8 3.75 7.253506
v -8 3 7.253506
v -8 4.5 10.03
v -8 4.5 7.253506
v -8 4.5 9.003506
v -8 0 10.03
v -8 0.75 10.03
v -8 1 7.253506
v -8 0 9.003506
v -8 1.5 10.03
v -8 1.5 7.253506
v -8 2.25 10.03
v -8 2.25 7.253506
v 2 3 10.03
v 2 3 8.503506
v 2 3.75 9.003506
v 2 3.75 10.03
v 2 4.5 9.003506
v 2 4.5 10.03
v 2 0 10.03
v 2 0 9.003506
v 2 1 8.503506
v 2 0.75 10.03
v 2 1.5 8.503506
v 2 1.5 10.03
v 2.5 1 8.503506
v 2.5 1 3.267067
v 2.5 1.5 3.267067
v 2.5 1.5 8.503506
v 2 2.25 8.503506
v 2 2.25 10.03
v 2.5 2.25 3.267067
v 2.5 2.25 8.503506
v 2.5 3 3.267067
v 2.5 3 8.503506
v 1.5 4.5 0.9782548
v 1.5 4.5 0
v 1.5 0 0
v 1.5 0 0.9782548
v 1.5 4.5 10.03
v 1.5 4.5 3.004129
v 1.5 0 3.004129
v 1.5 3.75 10.03
v 1.5 3 10.03
v 1.5 1.25 10.03
v 1.5 0 10.03
v 1.5 1.5 10.03
v 1.5 2.25 10.03
v 1.5 3 0
v 1.5 3.75 0
v 1.5 0.75 0
v 1.5 1.5 0
v 1.5 2.25 0
v 1.5 4.5 3.267067
v 1.5 0 3.267067
v 1.5 4.5 9.003506
v 1.5 0 9.003506
v -6 4.5 0.9782548
v -6 4.5 0
v -6 0 0
v -6 0 0.9782548
v -6 4.5 10.03
v -6 4.5 3.004129
v -6 0 3.004129
v -6 3.75 10.03
v -6 3 10.03
v -6 1.25 10.03
v -6 0 10.03
v 1.5 1.25 10.53
v 1.5 1.5 10.53
v -6 1.5 10.53
v -6 1.25 10.53
v -6 1.5 10.03
v 1.5 2.25 10.53
v -6 2.25 10.53
v -6 2.25 10.03
v -6 3 0
v -6 3.75 0
v -6 0.75 0
v -6 1.5 0
v -6 2.25 0
v -6 4.5 3.267067
v -6 0 3.267067
v -6 4.5 9.003506
v -6 0 9.003506
v 1.5 3.75 10.53
v 1.5 4.5 10.53
v -6 4.5 10.53
v -6 3.75 10.53
v -6 3 10.53
v 1.5 3 10.53
v -8.75 1.5 7.253506
v -8.75 2.25 7.253506
v -8.75 2.25 4.002855
v -8.75 1.5 4.002855
v -8.75 1 4.002855
v -8.75 1 7.253506
v 4 2.25 10.00413
v 4 1.5 10.00413
v 6 2.25 10.00413
v 6 1.5 10.00413
v 4 3 10.00413
v 6 3 10.00413
v 4 0.75 10.00413
v 6 0.75 10.00413
v 4 0 10.00413
v 6 0 10.00413
v 8 2.25 3.004129
v 8 3 3.004129
v 8 2.25 10.00413
v 8 3 10.00413
v 8 1.5 3.004129
v 8 1.5 10.00413
v 8 0.75 3.004129
v 8 0.75 10.00413
v 8 0 3.004129
v 8 0 10.00413

vt -3.004129 4.5
vt -0.9782548 4.5
vt 0 4.5
vt 0.9782548 4.5
vt 3.004129 4.5
vt -2 3.004129
vt -2 0.9782548
vt -4 3.004129
vt -4 0.9782548
vt 2 0.9782548
vt 2 3.004129
vt 4 0.9782548
vt 4 3.004129
vt -4.002855 4.5
vt -3.004129 3.75
vt -4.002855 3.75
vt -3.004129 3
vt -4.002855 3
vt -3.267067 4.5
vt -0.9782548 3.75
vt -0.9782548 3
vt 0 3.75
vt 0 3
vt -0.9782548 0
vt -0.9782548 0.75
vt 0 0.75
vt 0 0
vt -0.9782548 1.5
vt 0 1.5
vt -0.9782548 2.25
vt 0 2.25
vt -4.002855 1.5
vt -3.004129 1.5
vt -3.004129 0.75
vt -4.002855 1
vt -3.004129 0
vt -4.002855 0
vt -3.004129 2.25
vt -4.002855 2.25
vt 0.9782548 3
vt 0.9782548 3.75
vt 3.267067 3
vt 3.004129 3
vt 3.004129 3.75
vt 3.267067 3.75
vt 3.267067 4.5
vt 3.267067 0
vt 3.004129 0
vt 3.004129 0.75
vt 3.267067 1
vt 3.004129 1.5
vt 3.267067 1.5
vt 0.9782548 0
vt 0.9782548 0.75
vt 0.9782548 1.5
vt 0.9782548 2.25
vt 3.004129 2.25
vt 3.267067 2.25
vt 2 0
vt 2 0.75
vt 4 0.75
vt 4 0
vt 2 1.5
vt 4 1.5
vt -2 1.5
vt -2 0.75
vt -4 0.75
vt -4 1.5
vt -2 0
vt -4 0
vt 2 2.25
vt 4 2.25
vt 2 3
vt 4 3
vt -2 3
vt -2 2.25
vt -4 2.25
vt -4 3
vt -10.03 3
vt -10.03 3.75
vt -7.253506 3.75
vt -7.253506 3
vt -10.03 4.5
vt -7.253506 4.5
vt -9.003506 4.5
vt -10.03 0
vt -10.03 0.75
vt -7.253506 1
vt -9.003506 0
vt -10.03 1.5
vt -7.253506 1.5
vt -10.03 2.25
vt -7.253506 2.25
vt 10.03 3
vt 8.503506 3
vt 9.003506 3.75
vt 10.03 3.75
vt 9.003506 4.5
vt 10.03 4.5
vt 10.03 0
vt 9.003506 0
vt 8.503506 1
vt 10.03 0.75
vt 8.503506 1.5
vt 10.03 1.5
vt 8.503506 2.25
vt 10.03 2.25
vt -2 8.503506
vt -2 3.267067
vt 1.5 0.9782548
vt 1.5 0
vt -1.5 0
vt -1.5 0.9782548
vt -2 4.5
vt -1.5 4.5
vt 2 4.5
vt 1.5 4.5
vt 1.5 3.004129
vt -1.5 3.004129
vt -2 3.75
vt -1.5 3.75
vt -1.5 3
vt -1.5 1.25
vt -1.5 1.5
vt -1.5 2.25
vt 1.5 3
vt 1.5 3.75
vt 2 3.75
vt 1.5 0.75
vt 1.5 1.5
vt 1.5 2.25
vt 1.5 3.267067
vt 2 3.267067
vt -1.5 3.267067
vt 1.5 9.003506
vt 2 9.003506
vt 1.5 10.03
vt 2 10.03
vt -2 9.003506
vt -1.5 9.003506
vt -2 10.03
vt -1.5 10.03
vt -8 0
vt -8 0.9782548
vt -6 0.9782548
vt -6 0
vt 8 0
vt 6 0
vt 6 0.9782548
vt 8 0.9782548
vt 6 4.5
vt 8 4.5
vt -6 4.5
vt -8 4.5
vt -8 3.004129
vt -6 3.004129
vt 6 3.004129
vt 8 3.004129
vt 6 3.75
vt 8 3.75
vt 8 3
vt 6 3
vt 6 1.25
vt 8 0.75
vt 6 1.5
vt 8 1.5
vt 6 2.25
vt 8 2.25
vt -6 3
vt -6 3.75
vt -8 3
vt -8 3.75
vt -6 0.75
vt -8 0.75
vt -6 1.5
vt -8 1.5
vt -6 2.25
vt -8 2.25
vt -8 3.267067
vt -6 3.267067
vt 6 3.267067
vt 8 4.002855
vt -8 9.003506
vt -6 9.003506
vt -8 10.03
vt -6 10.03
vt 6 9.003506
vt 8 9.003506
vt 6 10.03
vt 8 10.03
vt 10.53 3.75
vt 10.53 4.5
vt 1.5 10.53
vt -6 10.53
vt -10.53 4.5
vt -10.53 3.75
vt -10.53 3
vt 10.53 3
vt 6 10.53
vt -1.5 10.53
vt 10.53 1.5
vt 10.53 2.25
vt -10.53 2.25
vt -10.53 1.5
vt -10.03 1.25
vt -10.53 1.25
vt 10.03 1.25
vt 10.53 1.25
vt 8.75 1.5
vt 8.75 2.25
vt -8 7.253506
vt -8 4.002855
vt -8.75 7.253506
vt -8.75 4.002855
vt -8.75 2.25
vt -8.75 1.5
vt -8 1
vt -8.75 1
vt 8 1
vt 8.75 1
vt 8 7.253506
vt 8.75 4.002855
vt 8.75 7.253506
vt -2.5 8.503506
vt -2.5 3.267067
vt 2.5 2.25
vt 2.5 3
vt -2.5 3
vt -2.5 2.25
vt 2 8.503506
vt 2.5 3.267067
vt 2.5 8.503506
vt 2.5 1.5
vt -2.5 1.5
vt 2 1
vt 2.5 1
vt -2 1
vt -2.5 1
vt 6 0.75
vt -10.00413 3
vt -10.00413 2.25
vt 6 10.00413
vt 4 10.00413
vt -4 10.00413
vt -6 10.00413
vt 10.00413 2.25
vt 10.00413 3
vt -10.00413 1.5
vt 10.00413 1.5
vt -10.00413 0.75
vt 10.00413 0.75
vt -10.00413 0
vt 10.00413 0
vt 8 10.00413
vt -8 10.00413

vn 0 0 0
vn 0 1 0
vn 0 -1 0
vn 1 0 0
vn -1 0 0
vn 0 0 1
vn 0 0 -1

usemtl DefaultHDMaterial
f 2/2/1 2/2/1 1/1/1 1/1/1
f 3/3/1 3/3/1 2/2/1 2/2/1
f 5/4/1 4/3/1 4/3/1 5/4/1
f 6/5/1 5/4/1 5/4/1 6/5/1
f 9/8/2 10/9/2 8/7/2 7/6/2
f 13/12/3 14/13/3 12/11/3 11/10/3
f 16/15/4 1/1/4 15/14/4 17/16/4
f 18/17/4 16/15/4 17/16/4 19/18/4
f 1/1/1 1/1/1 20/19/1 15/14/1
f 22/21/4 21/20/4 16/15/4 18/17/4
f 21/20/4 2/2/4 1/1/4 16/15/4
f 24/23/4 23/22/4 21/20/4 22/21/4
f 23/22/4 3/3/4 2/2/4 21/20/4
f 28/27/4 27/26/4 26/25/4 25/24/4
f 27/26/4 30/29/4 29/28/4 26/25/4
f 30/29/4 32/31/4 31/30/4 29/28/4
f 32/31/4 24/23/4 22/21/4 31/30/4
f 35/34/4 34/33/4 33/32/4 36/35/4
f 37/36/4 35/34/4 36/35/4 38/37/4
f 39/38/4 18/17/4 19/18/4 40/39/4
f 34/33/4 39/38/4 40/39/4 33/32/4
f 29/28/4 31/30/4 39/38/4 34/33/4
f 31/30/4 22/21/4 18/17/4 39/38/4
f 25/24/4 26/25/4 35/34/4 37/36/4
f 26/25/4 29/28/4 34/33/4 35/34/4
f 43/41/5 42/22/5 41/23/5 11/40/5
f 5/4/5 4/3/5 42/22/5 43/41/5
f 46/45/5 45/44/5 12/43/5 44/42/5
f 47/46/5 6/5/5 45/44/5 46/45/5
f 45/44/5 43/41/5 11/40/5 12/43/5
f 6/5/5 5/4/5 43/41/5 45/44/5
f 47/46/1 6/5/1 6/5/1 47/46/1
f 50/50/5 49/49/5 7/48/5 48/47/5
f 52/52/5 51/51/5 49/49/5 50/50/5
f 56/49/5 55/54/5 54/53/5 53/48/5
f 58/51/5 57/55/5 55/54/5 56/49/5
f 60/57/5 59/56/5 57/55/5 58/51/5
f 62/43/5 61/40/5 59/56/5 60/57/5
f 64/58/5 63/57/5 51/51/5 52/52/5
f 44/42/5 12/43/5 63/57/5 64/58/5
f 67/54/5 66/26/5 65/27/5 8/53/5
f 69/55/5 68/29/5 66/26/5 67/54/5
f 71/56/5 70/31/5 68/29/5 69/55/5
f 11/40/5 41/23/5 70/31/5 71/56/5
f 72/61/6 67/60/6 8/59/6 10/62/6
f 73/64/6 69/63/6 67/60/6 72/61/6
f 49/66/7 51/65/7 75/68/7 74/67/7
f 7/69/7 49/66/7 74/67/7 9/70/7
f 76/72/6 71/71/6 69/63/6 73/64/6
f 13/74/6 11/73/6 71/71/6 76/72/6
f 63/76/7 12/75/7 14/78/7 77/77/7
f 51/65/7 63/76/7 77/77/7 75/68/7
f 81/82/4 80/81/4 79/80/4 78/79/4
f 19/18/4 17/16/4 80/81/4 81/82/4
f 80/81/4 83/84/4 82/83/4 79/80/4
f 17/16/4 15/14/4 83/84/4 80/81/4
f 83/84/1 84/85/1 82/83/1 82/83/1
f 15/14/1 20/19/1 84/85/1 83/84/1
f 88/89/4 87/88/4 86/87/4 85/86/4
f 38/37/4 36/35/4 87/88/4 88/89/4
f 87/88/4 90/91/4 89/90/4 86/87/4
f 90/91/4 92/93/4 91/92/4 89/90/4
f 92/93/4 81/82/4 78/79/4 91/92/4
f 40/39/4 19/18/4 81/82/4 92/93/4
f 96/97/5 95/96/5 94/95/5 93/94/5
f 95/96/5 46/45/5 44/42/5 94/95/5
f 98/99/5 97/98/5 95/96/5 96/97/5
f 97/98/5 47/46/5 46/45/5 95/96/5
f 98/99/1 97/98/1 97/98/1 98/99/1
f 97/98/1 47/46/1 47/46/1 97/98/1
f 102/103/5 101/102/5 100/101/5 99/100/5
f 101/102/5 50/50/5 48/47/5 100/101/5
f 104/105/5 103/104/5 101/102/5 102/103/5
f 108/104/5 107/52/5 106/50/5 105/102/5
f 110/107/5 109/106/5 103/104/5 104/105/5
f 112/106/5 111/58/5 107/52/5 108/104/5
f 93/94/5 94/95/5 109/106/5 110/107/5
f 114/95/5 113/42/5 111/58/5 112/106/5
f 94/108/1 109/108/1 109/108/1 94/108/1
f 52/109/1 64/109/1 64/109/1 52/109/1
f 109/108/1 103/108/1 103/108/1 109/108/1
f 64/109/1 44/109/1 44/109/1 64/109/1
f 101/108/1 50/109/1 50/109/1 101/108/1
f 50/109/1 52/109/1 52/109/1 50/109/1
f 103/108/1 101/108/1 101/108/1 103/108/1
f 44/109/1 94/108/1 94/108/1 44/109/1
f 4/59/3 5/10/3 115/110/3 116/111/3
f 118/113/2 8/7/2 65/69/2 117/112/2
f 119/115/1 119/115/1 98/114/1 98/114/1
f 4/116/1 116/117/1 116/117/1 4/116/1
f 5/10/3 6/11/3 120/118/3 115/110/3
f 121/119/2 7/6/2 8/7/2 118/113/2
f 123/122/7 122/121/7 96/120/7 93/75/7
f 122/121/7 119/115/7 98/114/7 96/120/7
f 125/112/7 124/123/7 102/66/7 99/69/7
f 124/123/7 126/124/7 104/65/7 102/66/7
f 126/124/7 127/125/7 110/76/7 104/65/7
f 127/125/7 123/122/7 93/75/7 110/76/7
f 42/128/6 129/127/6 128/126/6 41/73/6
f 4/116/6 116/117/6 129/127/6 42/128/6
f 66/60/6 130/129/6 117/111/6 65/59/6
f 68/63/6 131/130/6 130/129/6 66/60/6
f 70/71/6 132/131/6 131/130/6 68/63/6
f 41/73/6 128/126/6 132/131/6 70/71/6
f 6/11/3 47/133/3 133/132/3 120/118/3
f 134/134/2 48/109/2 7/6/2 121/119/2
f 47/133/3 97/136/3 135/135/3 133/132/3
f 97/136/3 98/138/3 119/137/3 135/135/3
f 136/140/2 100/139/2 48/109/2 134/134/2
f 125/142/2 99/141/2 100/139/2 136/140/2
f 138/146/3 137/145/3 2/144/3 3/143/3
f 116/111/3 115/110/3 137/145/3 138/146/3
f 25/150/2 140/149/2 139/148/2 28/147/2
f 140/149/2 118/113/2 117/112/2 139/148/2
f 141/151/1 141/151/1 119/115/1 119/115/1
f 82/152/1 82/152/1 141/151/1 141/151/1
f 116/117/1 138/153/1 138/153/1 116/117/1
f 138/153/1 3/154/1 3/154/1 138/153/1
f 137/145/3 142/156/3 1/155/3 2/144/3
f 115/110/3 120/118/3 142/156/3 137/145/3
f 37/158/2 143/157/2 140/149/2 25/150/2
f 143/157/2 121/119/2 118/113/2 140/149/2
f 78/161/7 79/160/7 144/159/7 145/162/7
f 79/160/7 82/152/7 141/151/7 144/159/7
f 147/148/7 146/163/7 124/123/7 125/112/7
f 85/147/7 86/164/7 146/163/7 147/148/7
f 151/163/7 150/165/7 149/124/7 148/123/7
f 86/164/7 89/166/7 152/165/7 146/163/7
f 150/165/7 154/167/7 153/125/7 149/124/7
f 89/166/7 91/168/7 155/167/7 152/165/7
f 155/167/7 145/162/7 123/122/7 127/125/7
f 91/168/7 78/161/7 145/162/7 155/167/7
f 129/127/6 157/170/6 156/169/6 128/126/6
f 157/170/6 23/172/6 24/171/6 156/169/6
f 116/117/6 138/153/6 157/170/6 129/127/6
f 138/153/6 3/154/6 23/172/6 157/170/6
f 130/129/6 158/173/6 139/146/6 117/111/6
f 158/173/6 27/174/6 28/143/6 139/146/6
f 131/130/6 159/175/6 158/173/6 130/129/6
f 159/175/6 30/176/6 27/174/6 158/173/6
f 132/131/6 160/177/6 159/175/6 131/130/6
f 160/177/6 32/178/6 30/176/6 159/175/6
f 128/126/6 156/169/6 160/177/6 132/131/6
f 156/169/6 24/171/6 32/178/6 160/177/6
f 142/156/3 161/180/3 20/179/3 1/155/3
f 120/118/3 133/132/3 161/180/3 142/156/3
f 38/182/2 162/181/2 143/157/2 37/158/2
f 162/181/2 134/134/2 121/119/2 143/157/2
f 161/180/3 163/184/3 84/183/3 20/179/3
f 133/132/3 135/135/3 163/184/3 161/180/3
f 163/184/3 141/186/3 82/185/3 84/183/3
f 135/135/3 119/137/3 141/186/3 163/184/3
f 88/188/2 164/187/2 162/181/2 38/182/2
f 164/187/2 136/140/2 134/134/2 162/181/2
f 85/190/2 147/189/2 164/187/2 88/188/2
f 147/189/2 125/142/2 136/140/2 164/187/2
f 165/191/5 166/192/5 119/99/5 122/97/5
f 166/193/3 167/194/3 141/186/3 119/137/3
f 167/195/4 168/196/4 144/80/4 141/83/4
f 168/196/4 169/197/4 145/79/4 144/80/4
f 170/198/5 165/191/5 122/97/5 123/94/5
f 169/199/2 170/200/2 123/142/2 145/189/2
f 149/201/5 153/202/5 127/107/5 126/105/5
f 153/193/3 154/194/3 155/186/3 127/137/3
f 154/203/4 150/204/4 152/90/4 155/92/4
f 150/204/4 151/206/4 146/205/4 152/90/4
f 148/208/5 149/201/5 126/105/5 124/207/5
f 151/199/2 148/200/2 124/142/2 146/189/2
f 171/209/7 172/210/7 92/168/7 90/166/7
f 172/213/3 173/214/3 40/212/3 92/211/3
f 173/215/6 174/216/6 33/176/6 40/178/6
f 174/216/6 175/218/6 36/217/6 33/176/6
f 176/220/7 171/209/7 90/166/7 87/219/7
f 175/222/2 176/223/2 87/221/2 36/182/2
f 105/224/2 106/225/2 50/109/2 101/108/2
f 111/226/6 113/227/6 44/73/6 64/71/6
f 114/228/7 112/229/7 109/76/7 94/75/7
f 113/231/3 114/232/3 94/230/3 44/133/3
f 107/233/6 111/226/6 64/71/6 52/63/6
f 112/229/7 108/234/7 103/65/7 109/76/7
f 106/236/6 107/233/6 52/63/6 50/235/6
f 108/234/7 105/238/7 101/237/7 103/65/7
f 53/156/2 54/145/2 10/9/2 9/8/2
f 57/165/6 59/167/6 76/72/6 73/64/6
f 179/177/7 180/175/7 178/68/7 177/77/7
f 59/167/6 61/162/6 13/74/6 76/72/6
f 182/169/7 179/177/7 177/77/7 181/78/7
f 55/239/6 57/165/6 73/64/6 72/61/6
f 180/175/7 184/173/7 183/67/7 178/68/7
f 54/148/6 55/239/6 72/61/6 10/62/6
f 184/173/7 186/146/7 185/70/7 183/67/7
f 61/149/3 62/157/3 14/13/3 13/12/3
f 181/240/4 177/241/4 77/38/4 14/17/4
f 182/242/3 181/243/3 14/13/3 62/157/3
f 185/244/2 186/245/2 53/156/2 9/8/2
f 189/246/5 190/247/5 188/43/5 187/57/5
f 177/241/4 178/248/4 75/33/4 77/38/4
f 192/249/5 189/246/5 187/57/5 191/51/5
f 178/248/4 183/250/4 74/34/4 75/33/4
f 194/251/5 192/249/5 191/51/5 193/49/5
f 183/250/4 185/252/4 9/36/4 74/34/4
f 196/253/5 194/251/5 193/49/5 195/48/5
f 187/168/6 188/161/6 62/162/6 60/167/6
f 189/178/7 192/176/7 180/175/7 179/177/7
f 188/158/3 190/254/3 182/242/3 62/157/3
f 190/171/7 189/178/7 179/177/7 182/169/7
f 191/166/6 187/168/6 60/167/6 58/165/6
f 192/176/7 194/174/7 184/173/7 180/175/7
f 193/164/6 191/166/6 58/165/6 56/239/6
f 194/174/7 196/143/7 186/146/7 184/173/7
f 195/147/6 193/164/6 56/239/6 53/148/6
f 196/255/2 195/155/2 53/156/2 186/245/2

